<svg width="24" height="24" viewBox="0 0 24 24" fill="none" xmlns="http://www.w3.org/2000/svg">
<path d="M14 7.37868C15.6568 7.37876 17 8.72188 17 10.3787C17 12.0355 15.6568 13.3786 14 13.3787H8.71191L11.1104 15.7673C11.3057 15.9621 11.3068 16.2788 11.1123 16.4744C10.9175 16.67 10.601 16.67 10.4053 16.4754L7.14746 13.2322C7.05347 13.1385 7.00007 13.0114 7 12.8787C7.00007 12.7458 7.0533 12.6179 7.14746 12.5242L10.4053 9.28102C10.601 9.08689 10.9167 9.08855 11.1113 9.28395C11.3059 9.47967 11.306 9.79624 11.1104 9.99098L8.71094 12.3787H14C15.1045 12.3786 16 11.4832 16 10.3787C16 9.27416 15.1045 8.37876 14 8.37868H13.5C13.224 8.37862 13.0002 8.15459 13 7.87868C13.0002 7.60276 13.224 7.37873 13.5 7.37868H14Z" fill="#BAC2DE"/>
</svg>
