<svg width="24" height="24" viewBox="0 0 24 24" fill="none" xmlns="http://www.w3.org/2000/svg">
<path fill-rule="evenodd" clip-rule="evenodd" d="M11.1824 13.4725C11.6343 13.021 12.3664 13.0208 12.8182 13.4725L14.0945 14.7489C14.5458 15.2007 14.5459 15.9329 14.0945 16.3846L12.8182 17.661C12.3664 18.1129 11.6334 18.1128 11.1814 17.661L9.90508 16.3846C9.45361 15.9328 9.45363 15.2007 9.90508 14.7489L11.1824 13.4725ZM12.1639 14.1268C12.0736 14.0366 11.9271 14.0368 11.8367 14.1268L10.5604 15.4032C10.47 15.4936 10.47 15.6399 10.5604 15.7303L11.8367 17.0067C11.9271 17.0968 12.0736 17.097 12.1639 17.0067L13.4393 15.7303C13.5295 15.64 13.5294 15.4935 13.4393 15.4032L12.1639 14.1268ZM7.61504 9.90513C8.06682 9.45375 8.79901 9.45369 9.25078 9.90513L10.5271 11.1815C10.9789 11.6334 10.979 12.3664 10.5271 12.8182L9.25078 14.0946C8.82724 14.5178 8.15728 14.544 7.70293 14.1737L7.61504 14.0946L6.33867 12.8182C5.91515 12.3947 5.88908 11.7248 6.25957 11.2704L6.33867 11.1825L7.61504 9.90513ZM14.7488 9.90513C15.2006 9.45375 15.9328 9.45369 16.3846 9.90513L17.6609 11.1815C18.1127 11.6334 18.1128 12.3664 17.6609 12.8182L16.3846 14.0946L16.2967 14.1737C15.8424 14.5441 15.1724 14.5177 14.7488 14.0946L13.4725 12.8182C13.0489 12.3947 13.0229 11.7248 13.3934 11.2704L13.4725 11.1825L14.7488 9.90513ZM8.59649 10.5604C8.50613 10.47 8.35971 10.4701 8.26934 10.5604L6.99297 11.8368C6.90291 11.9272 6.90273 12.0737 6.99297 12.1639L8.26934 13.4393C8.35971 13.5295 8.50616 13.5296 8.59649 13.4393L9.87285 12.1639L9.90313 12.1278C9.96238 12.0381 9.95171 11.9159 9.87285 11.8368L8.59649 10.5604ZM15.7303 10.5604C15.6399 10.47 15.4935 10.4701 15.4031 10.5604L14.1268 11.8368C14.0367 11.9272 14.0365 12.0737 14.1268 12.1639L15.4031 13.4393C15.4935 13.5295 15.6399 13.5296 15.7303 13.4393L17.0066 12.1639C17.0969 12.0736 17.0968 11.9272 17.0066 11.8368L15.7303 10.5604ZM11.1824 6.33873C11.6343 5.88724 12.3664 5.88703 12.8182 6.33873L14.0945 7.6151C14.5458 8.06686 14.5459 8.79908 14.0945 9.25084L12.8182 10.5272C12.3664 10.9791 11.6334 10.979 11.1814 10.5272L9.90508 9.25084C9.4818 8.82725 9.45555 8.15733 9.82598 7.70299L9.90508 7.6151L11.1824 6.33873ZM12.1639 6.99302C12.0736 6.90281 11.9271 6.90303 11.8367 6.99302L10.5604 8.26939C10.47 8.35976 10.47 8.50616 10.5604 8.59654L11.8367 9.87291C11.9271 9.96305 12.0736 9.96323 12.1639 9.87291L13.4393 8.59654C13.5295 8.50621 13.5294 8.35974 13.4393 8.26939L12.1639 6.99302Z" fill="#BAC2DE"/>
</svg>
