<svg width="20" height="20" viewBox="0 0 20 20" fill="none" xmlns="http://www.w3.org/2000/svg">
<path fill-rule="evenodd" clip-rule="evenodd" d="M14.2887 5.12204C14.4514 4.95932 14.7153 4.95932 14.878 5.12204C15.0407 5.28476 15.0407 5.54858 14.878 5.71129L12.2559 8.33334H14.5833C14.8134 8.33334 15 8.51992 15 8.75C15 8.98009 14.8134 9.16667 14.5833 9.16667H11.25C11.0199 9.16667 10.8333 8.98009 10.8333 8.75V5.41667C10.8333 5.18655 11.0199 5 11.25 5C11.4801 5 11.6667 5.18655 11.6667 5.41667V7.74408L14.2887 5.12204ZM5.71129 14.878C5.54858 15.0407 5.28476 15.0407 5.12204 14.878C4.95932 14.7153 4.95932 14.4514 5.12204 14.2887L7.74408 11.6667H5.41667C5.18655 11.6667 5 11.4801 5 11.25C5 11.0199 5.18655 10.8333 5.41667 10.8333H8.75C8.98009 10.8333 9.16667 11.0199 9.16667 11.25V14.5833C9.16667 14.8134 8.98009 15 8.75 15C8.51992 15 8.33334 14.8134 8.33334 14.5833V12.2559L5.71129 14.878Z" fill="black" fill-opacity="0.9"/>
</svg>
