<svg width="24" height="24" viewBox="0 0 24 24" fill="none" xmlns="http://www.w3.org/2000/svg">
<path d="M11.0625 5.32893C11.6103 4.89084 12.3897 4.89084 12.9375 5.32893L17.9375 9.32893C18.2929 9.61353 18.4999 10.0445 18.5 10.4998V17.4998C18.5 18.3283 17.8284 18.9998 17 18.9998H14C13.1716 18.9998 12.5 18.3283 12.5 17.4998V13.9998H11.5V17.4998C11.5 18.3283 10.8284 18.9998 10 18.9998H7C6.17157 18.9998 5.5 18.3283 5.5 17.4998V10.4998C5.5001 10.0445 5.70705 9.61353 6.0625 9.32893L11.0625 5.32893ZM7 10.4998V17.4998H10V13.4998C10.0002 12.9477 10.4478 12.4998 11 12.4998H13C13.5522 12.4998 13.9998 12.9477 14 13.4998V17.4998H17V10.4998L12 6.49983L7 10.4998Z" fill="#BAC2DE"/>
</svg>
