<svg width="24" height="24" viewBox="0 0 24 24" fill="none" xmlns="http://www.w3.org/2000/svg">
<path fill-rule="evenodd" clip-rule="evenodd" d="M10.9707 17.5488C11.6041 17.9288 12.3959 17.9288 13.0293 17.5488L17.5146 14.8574C17.8157 14.6766 18 14.3511 18 13.9999C17.9999 13.6488 17.8157 13.3232 17.5146 13.1425L15.6104 12.0009L17.5146 10.8574C17.8156 10.6766 18 10.3511 18 9.99993C17.9998 9.6489 17.8156 9.32317 17.5146 9.14251L13.0293 6.45111C12.396 6.07125 11.604 6.07125 10.9707 6.45111L6.48535 9.14251C6.18436 9.32317 6.00016 9.6489 6 9.99993C6 10.3511 6.18435 10.6766 6.48535 10.8574L8.38867 11.9999L6.48535 13.1425C6.18432 13.3232 6.00011 13.6488 6 13.9999C6 14.3511 6.18431 14.6766 6.48535 14.8574L10.9707 17.5488ZM12.3926 12.7538C12.1003 12.8786 11.7625 12.8576 11.4854 12.6913L7 9.99993L11.4854 7.30853C11.8019 7.11868 12.1981 7.11868 12.5146 7.30853L17 9.99993L12.5146 12.6913L12.3926 12.7538ZM12.3926 16.7538C12.1003 16.8786 11.7625 16.8576 11.4854 16.6913L7 13.9999L9.36035 12.5839L10.9707 13.5488C11.6041 13.9288 12.3959 13.9288 13.0293 13.5488L14.6377 12.5839L17 13.9999L12.5146 16.6913L12.3926 16.7538Z" fill="#BAC2DE"/>
</svg>
