<svg width="24" height="24" viewBox="0 0 24 24" fill="none" xmlns="http://www.w3.org/2000/svg">
<path d="M10.5674 7.94229C10.7626 7.74744 11.0793 7.74731 11.2744 7.94229C11.4696 8.13743 11.4693 8.45403 11.2744 8.64932L8.04102 11.8827L12.1162 15.9579L15.3496 12.7255C15.5449 12.5305 15.8624 12.5303 16.0576 12.7255C16.2525 12.9206 16.2524 13.2373 16.0576 13.4325L12.752 16.7382C12.4011 17.0888 11.8323 17.0887 11.4814 16.7382L7.26172 12.5185C6.91122 12.1676 6.91123 11.5988 7.26172 11.248L10.5674 7.94229ZM16.1025 6.99893C16.5984 6.99925 17.0008 7.40149 17.001 7.89737V10.6874C17.001 10.9634 16.7769 11.1872 16.501 11.1874C16.2248 11.1874 16.001 10.9636 16.001 10.6874V8.70596L12.4697 12.2372C12.2744 12.432 11.9578 12.4323 11.7627 12.2372C11.5674 12.042 11.5674 11.7245 11.7627 11.5292L15.2939 7.99893H13.3125C13.0364 7.99893 12.8125 7.77507 12.8125 7.49893C12.8126 7.22291 13.0364 6.99893 13.3125 6.99893H16.1025Z" fill="#BAC2DE"/>
</svg>
