<svg width="24" height="24" viewBox="0 0 24 24" fill="none" xmlns="http://www.w3.org/2000/svg">
<path fill-rule="evenodd" clip-rule="evenodd" d="M11.3568 7.54707C11.7122 7.19178 12.2885 7.19172 12.6439 7.54707L16.4525 11.3566C16.8079 11.712 16.8079 12.2883 16.4525 12.6437L12.6439 16.4523L12.5745 16.5148C12.2409 16.7871 11.7598 16.787 11.4261 16.5148L11.3568 16.4523L7.54718 12.6437C7.21411 12.3107 7.19341 11.7834 7.48468 11.426L7.54718 11.3566L11.3568 7.54707ZM12.1292 8.06172C12.0582 7.99069 11.9425 7.99075 11.8714 8.06172L8.06183 11.8713C7.99089 11.9424 7.99082 12.0581 8.06183 12.1291L11.8714 15.9377C11.9425 16.0088 12.0581 16.0087 12.1292 15.9377L15.9378 12.1291C16.0089 12.058 16.0089 11.9424 15.9378 11.8713L12.1292 8.06172Z" fill="#BAC2DE"/>
</svg>
