<svg width="24" height="24" viewBox="0 0 24 24" fill="none" xmlns="http://www.w3.org/2000/svg">
<path d="M9.49609 7.29312C10.12 6.9248 10.8946 6.92483 11.5186 7.29312L14.0371 8.77945C14.6432 9.13732 15.0156 9.78947 15.0156 10.4933V13.506C15.0156 14.2098 14.6431 14.861 14.0371 15.2189L11.5186 16.7062C10.8947 17.0744 10.1199 17.0744 9.49609 16.7062L6.97754 15.2189C6.37163 14.861 5.99907 14.2097 5.99902 13.506V10.4933C5.99902 9.78959 6.37165 9.13736 6.97754 8.77945L9.49609 7.29312ZM12.4902 7.28824C13.1128 6.92499 13.8838 6.92638 14.5049 7.29312L17.0225 8.77945C17.6285 9.13732 18.001 9.78947 18.001 10.4933V13.506C18.0009 14.2097 17.6284 14.8611 17.0225 15.2189L14.5049 16.7072C13.8837 17.0739 13.1118 17.0754 12.4893 16.7121L13.7949 15.9406C13.8229 15.9317 13.8507 15.9218 13.8779 15.9103L13.999 15.8498L16.5166 14.3625C16.7817 14.2059 16.9573 13.9373 16.9971 13.6369L17.0059 13.506V10.4933C17.0059 10.1414 16.8196 9.81483 16.5166 9.63589L13.999 8.14859C13.9337 8.11003 13.8645 8.08017 13.7939 8.05777L12.4902 7.28824ZM11.0127 8.14957C10.7007 7.96555 10.3129 7.9654 10.001 8.14957L7.4834 9.63687L7.375 9.71011C7.13659 9.89715 6.99414 10.1855 6.99414 10.4933V13.506C6.99419 13.8578 7.18052 14.1835 7.4834 14.3625L10.001 15.8498C10.2738 16.0109 10.6052 16.031 10.8926 15.9103L11.0127 15.8498L13.5312 14.3625C13.7963 14.206 13.9719 13.9372 14.0117 13.6369L14.0205 13.506V10.4933C14.0205 10.1854 13.8782 9.89715 13.6396 9.71011L13.5312 9.63687L11.0127 8.14957ZM10.5176 11.005C11.0669 11.005 11.5125 11.4499 11.5127 11.9992C11.5127 12.5486 11.067 12.9943 10.5176 12.9943C9.96829 12.9942 9.52344 12.5485 9.52344 11.9992C9.52359 11.45 9.96838 11.0052 10.5176 11.005Z" fill="#BAC2DE"/>
</svg>
